<svg width="826" height="826" viewBox="0 0 826 826" fill="none" xmlns="http://www.w3.org/2000/svg">
<path d="M696.646 295.291C692.329 298.622 616.104 341.324 616.104 436.275C616.104 546.102 713.097 584.956 716 585.918C715.553 588.286 700.591 639.13 664.861 690.935C633.002 736.523 599.728 782.038 549.11 782.038C498.492 782.038 485.465 752.805 427.032 752.805C370.086 752.805 349.839 783 303.539 783C257.238 783 224.932 740.816 187.788 689.011C144.763 628.177 110 533.669 110 443.972C110 300.102 204.09 223.8 296.691 223.8C345.894 223.8 386.909 255.919 417.801 255.919C447.204 255.919 493.058 221.876 549.035 221.876C570.25 221.876 646.475 223.8 696.646 295.291ZM522.461 160.968C545.611 133.659 561.988 95.7673 561.988 57.8755C561.988 52.621 561.541 47.2924 560.573 43C522.908 44.4061 478.096 67.9405 451.075 99.0976C429.86 123.076 410.06 160.968 410.06 199.378C410.06 205.15 411.027 210.923 411.474 212.773C413.856 213.217 417.727 213.735 421.598 213.735C455.392 213.735 497.897 191.237 522.461 160.968Z" fill="#5D6EE0"/>
</svg>
