<svg width="826" height="826" viewBox="0 0 826 826" fill="none" xmlns="http://www.w3.org/2000/svg">
<path d="M696.646 295.291C692.329 298.622 616.104 341.324 616.104 436.275C616.104 546.102 713.097 584.956 716 585.918C715.553 588.286 700.591 639.13 664.861 690.935C633.002 736.523 599.728 782.038 549.11 782.038C498.492 782.038 485.465 752.805 427.032 752.805C370.086 752.805 349.839 783 303.539 783C257.238 783 224.932 740.816 187.788 689.011C144.763 628.177 110 533.669 110 443.972C110 300.102 204.09 223.8 296.691 223.8C345.894 223.8 386.909 255.919 417.801 255.919C447.204 255.919 493.058 221.876 549.035 221.876C570.25 221.876 646.475 223.8 696.646 295.291ZM522.461 160.968C545.611 133.659 561.988 95.7673 561.988 57.8755C561.988 52.621 561.541 47.2924 560.573 43C522.908 44.4061 478.096 67.9405 451.075 99.0976C429.86 123.076 410.06 160.968 410.06 199.378C410.06 205.15 411.027 210.923 411.474 212.773C413.856 213.217 417.727 213.735 421.598 213.735C455.392 213.735 497.897 191.237 522.461 160.968Z" fill="#5D6EE0"/>
<path d="M782.948 247.526C782.904 240.077 782.822 232.633 782.616 225.176C782.182 208.955 781.223 192.586 778.34 176.539C775.415 160.242 770.632 145.088 763.095 130.284C755.697 115.745 746.025 102.44 734.488 90.9031C722.953 79.3658 709.649 69.6953 695.104 62.293C680.312 54.7649 665.156 49.9839 648.874 47.0584C632.817 44.1666 616.449 43.2139 600.215 42.7749C592.762 42.5729 585.316 42.4881 577.865 42.442C569.022 42.3921 560.172 42.3921 551.33 42.3921H355.281H274.062C265.212 42.3921 256.372 42.3921 247.531 42.4432C240.078 42.4894 232.623 42.5742 225.181 42.7762C221.123 42.8859 217.057 43.0281 212.988 43.2238C200.782 43.8124 188.558 44.8911 176.522 47.0596C164.31 49.2544 152.73 52.4916 141.465 57.1491C137.71 58.7004 133.989 60.4113 130.29 62.293C119.381 67.8447 109.168 74.6721 99.8795 82.6055C96.7832 85.2504 93.7891 88.0175 90.9061 90.9018C79.3663 102.439 69.6945 115.743 62.296 130.282C54.7591 145.087 49.9831 160.24 47.0551 176.537C44.1745 192.585 43.2168 208.953 42.7804 225.174C42.5759 232.631 42.4898 240.076 42.4412 247.524C42.3851 256.371 42.3926 265.218 42.3926 274.062V394.796V551.326C42.3926 560.179 42.3838 569.017 42.4412 577.87C42.4898 585.318 42.5759 592.763 42.7804 600.207C43.2168 616.437 44.1733 632.809 47.0551 648.849C49.9831 665.141 54.7591 680.309 62.296 695.11C69.6945 709.652 79.3663 722.953 90.9061 734.485C102.437 746.027 115.745 755.696 130.291 763.104C145.085 770.633 160.24 775.408 176.525 778.333C192.572 781.221 208.953 782.182 225.182 782.616C232.624 782.814 240.079 782.902 247.532 782.945C256.374 783.008 265.214 783 274.064 783H551.33C560.172 783 569.022 783.008 577.864 782.945C585.315 782.902 592.761 782.814 600.214 782.616C616.448 782.182 632.816 781.22 648.872 778.333C665.154 775.408 680.311 770.632 695.103 763.104C709.648 755.698 722.952 746.027 734.487 734.485C746.024 722.951 755.697 709.652 763.094 695.11C770.631 680.309 775.413 665.143 778.339 648.849C781.222 632.809 782.181 616.437 782.615 600.207C782.819 592.763 782.902 585.319 782.947 577.87C783.004 569.017 782.999 560.179 782.999 551.326V274.062C783 265.218 783.004 256.371 782.948 247.526Z" fill="#F05138"/>
<path d="M629.246 499.554C629.228 499.531 629.212 499.515 629.193 499.494C630.013 496.706 630.858 493.935 631.575 491.077C662.314 368.609 587.293 223.82 460.341 147.584C515.974 223.002 540.572 314.35 518.717 394.235C516.768 401.361 514.425 408.199 511.835 414.846C509.024 412.999 505.483 410.903 500.727 408.28C500.727 408.28 374.444 330.309 237.574 192.396C233.982 188.776 310.559 301.846 397.464 393.662C356.519 370.683 242.413 287.661 170.177 221.546C179.052 236.347 189.608 250.599 201.211 264.32C261.535 340.822 340.205 435.214 434.455 507.697C368.234 548.222 274.662 551.373 181.497 507.739C158.454 496.94 136.791 483.91 116.738 469.106C156.174 532.185 216.912 586.61 290.836 618.382C378.993 656.267 466.659 653.698 531.952 619.003L531.901 619.078C532.199 618.89 532.578 618.684 532.887 618.493C535.568 617.051 538.229 615.584 540.832 614.034C572.203 597.75 634.166 581.23 667.425 645.942C675.571 661.779 692.879 577.851 629.246 499.554Z" fill="white"/>
</svg>
