<svg width="366" height="244" viewBox="0 0 366 244" fill="none" xmlns="http://www.w3.org/2000/svg">
<path fill-rule="evenodd" clip-rule="evenodd" d="M109.455 164.561C89.5748 142.753 68.3339 119.849 60.7748 111.572C55.3323 105.638 55.6724 105.071 53.8205 93.2409C53.2157 89.3858 52.3465 87.5339 51.6283 83.3386L43.6157 45.2031C41.0835 50.1165 39.685 55.3701 37.9087 60.8882C36.3213 65.8772 34.0535 71.9244 32.3528 76.989C28.7622 87.5717 25.474 98.0787 21.9591 108.435C18.3307 119.131 3.25039 166.413 0 172.006L1.73858 171.628C3.09921 171.137 2.53228 171.515 4.15748 170.608L18.0283 161.083C24.4535 156.775 30.085 153.033 36.0945 148.762C45.052 142.375 44.1827 145.398 53.2535 150.425L144.567 220.12C145.814 221.14 146.079 222.501 146.003 223.824C145.89 225.751 146.646 227.452 148.157 228.661L165.241 242.268C168.076 244.498 172.006 244.46 174.803 242.192L191.811 228.283C193.398 226.998 194.117 225.146 193.89 223.143C193.701 221.783 193.928 220.384 195.099 219.326L296.92 131.981C307.54 124.573 306.066 120.907 318.009 127.672C326.022 132.17 333.506 136.101 342.047 140.636L360.529 150.652C362.608 151.559 361.89 151.181 363.628 151.597L365.858 151.824C361.096 145.361 336.227 88.5543 330.331 75.7417C324.624 63.3449 319.143 50.7591 313.323 38.022C310.564 31.9748 306.935 24.7559 304.328 18.7465C301.417 12.1323 298.998 5.78268 295.219 0L290.192 48.4535C289.852 53.7449 289.02 56.1638 288.756 61.0394C288 75.9685 288.491 76.6488 282.52 84.6992C272.277 98.3811 245.518 131.15 220.8 164.863L190.828 198.463C189.959 199.408 189.468 200.466 189.354 201.751L189.203 203.112C189.052 204.397 188.561 205.417 187.616 206.287L174.917 218.23C172.12 220.838 167.887 220.989 164.901 218.608L151.446 207.647C150.35 206.778 149.707 205.569 149.594 204.246C149.443 202.847 148.876 201.638 147.855 200.655L109.531 164.561H109.455Z" fill="#5D6EE0"/>
<path fill-rule="evenodd" clip-rule="evenodd" d="M278.702 64.4789C227.263 106.016 193.55 153.033 177.487 205.455C177.109 130.81 195.742 70.9041 233.424 25.7388C246.236 42.1419 261.317 55.0301 278.702 64.4789Z" fill="#5D6EE0"/>
<path fill-rule="evenodd" clip-rule="evenodd" d="M70.1479 105.26C114.784 131.565 146.305 164.145 164.75 202.961C156.51 145.058 135.194 100.762 100.8 70.0347C92.7495 84.2079 82.507 95.9622 70.1479 105.26Z" fill="#5D6EE0"/>
</svg>
