<svg width="2560" height="826" viewBox="0 0 2560 826" fill="none" xmlns="http://www.w3.org/2000/svg">
<path d="M700.646 295.291C696.329 298.622 620.104 341.324 620.104 436.275C620.104 546.102 717.097 584.956 720 585.918C719.553 588.286 704.591 639.13 668.861 690.935C637.002 736.523 603.728 782.038 553.11 782.038C502.492 782.038 489.465 752.805 431.032 752.805C374.086 752.805 353.839 783 307.539 783C261.238 783 228.932 740.816 191.788 689.011C148.763 628.177 114 533.669 114 443.972C114 300.102 208.09 223.8 300.691 223.8C349.894 223.8 390.909 255.919 421.801 255.919C451.204 255.919 497.058 221.876 553.035 221.876C574.25 221.876 650.475 223.8 700.646 295.291ZM526.461 160.968C549.611 133.659 565.988 95.7673 565.988 57.8755C565.988 52.621 565.541 47.2924 564.573 43C526.908 44.4061 482.096 67.9405 455.075 99.0976C433.86 123.076 414.06 160.968 414.06 199.378C414.06 205.15 415.027 210.923 415.474 212.773C417.856 213.217 421.727 213.735 425.598 213.735C459.392 213.735 501.897 191.237 526.461 160.968Z" fill="#5D6EE0"/>
<path d="M1244.5 614H1181.52V475.82C1181.52 456.393 1178.08 442.137 1171.18 433.05C1164.6 423.65 1155.36 418.95 1143.45 418.95C1131.23 418.95 1119.48 423.807 1108.2 433.52C1097.24 442.92 1089.4 455.297 1084.7 470.65V614H1021.72V475.82C1021.72 456.08 1018.28 441.667 1011.38 432.58C1004.8 423.493 995.56 418.95 983.653 418.95C971.433 418.95 959.683 423.65 948.403 433.05C937.436 442.45 929.603 454.827 924.903 470.18V614H861.923V367.72H918.793V413.31C928.193 397.33 940.726 385.11 956.393 376.65C972.06 367.877 990.076 363.49 1010.44 363.49C1030.81 363.49 1046.63 368.503 1057.91 378.53C1069.51 388.557 1076.87 400.933 1080 415.66C1090.03 398.74 1102.72 385.893 1118.07 377.12C1133.74 368.033 1151.29 363.49 1170.71 363.49C1186.07 363.49 1198.44 366.31 1207.84 371.95C1217.56 377.277 1225.08 384.64 1230.4 394.04C1235.73 403.127 1239.33 413.467 1241.21 425.06C1243.41 436.653 1244.5 448.403 1244.5 460.31V614ZM1282.42 541.15C1282.42 525.17 1286.8 511.227 1295.58 499.32C1304.66 487.1 1317.2 477.7 1333.18 471.12C1349.16 464.54 1367.49 461.25 1388.17 461.25C1398.51 461.25 1409 462.033 1419.66 463.6C1430.31 465.167 1439.55 467.673 1447.39 471.12V457.96C1447.39 442.293 1442.69 430.23 1433.29 421.77C1424.2 413.31 1410.57 409.08 1392.4 409.08C1378.92 409.08 1366.08 411.43 1353.86 416.13C1341.64 420.83 1328.79 427.723 1315.32 436.81L1295.11 395.45C1311.4 384.797 1328.01 376.807 1344.93 371.48C1362.16 366.153 1380.18 363.49 1398.98 363.49C1434.07 363.49 1461.33 372.263 1480.76 389.81C1500.5 407.357 1510.37 432.423 1510.37 465.01V543.5C1510.37 550.08 1511.46 554.78 1513.66 557.6C1516.16 560.42 1520.08 562.143 1525.41 562.77V614C1519.77 614.94 1514.6 615.723 1509.9 616.35C1505.51 616.977 1501.75 617.29 1498.62 617.29C1486.08 617.29 1476.53 614.47 1469.95 608.83C1463.68 603.19 1459.76 596.297 1458.2 588.15L1456.79 575.46C1446.13 589.247 1432.82 599.9 1416.84 607.42C1400.86 614.94 1384.56 618.7 1367.96 618.7C1351.66 618.7 1336.94 615.41 1323.78 608.83C1310.93 601.937 1300.75 592.693 1293.23 581.1C1286.02 569.193 1282.42 555.877 1282.42 541.15ZM1435.64 553.84C1439.08 550.08 1441.9 546.32 1444.1 542.56C1446.29 538.8 1447.39 535.353 1447.39 532.22V507.31C1439.87 504.177 1431.72 501.827 1422.95 500.26C1414.17 498.38 1405.87 497.44 1398.04 497.44C1381.74 497.44 1368.27 501.043 1357.62 508.25C1347.28 515.143 1342.11 524.387 1342.11 535.98C1342.11 542.247 1343.83 548.2 1347.28 553.84C1350.72 559.48 1355.74 564.023 1362.32 567.47C1368.9 570.917 1376.73 572.64 1385.82 572.64C1395.22 572.64 1404.46 570.917 1413.55 567.47C1422.63 563.71 1430 559.167 1435.64 553.84ZM1683.9 618.7C1663.84 618.7 1645.83 615.41 1629.85 608.83C1613.87 601.937 1600.24 592.537 1588.96 580.63C1577.68 568.41 1568.9 554.623 1562.64 539.27C1556.68 523.917 1553.71 507.78 1553.71 490.86C1553.71 467.673 1558.88 446.523 1569.22 427.41C1579.87 407.983 1594.91 392.473 1614.34 380.88C1633.76 369.287 1656.79 363.49 1683.43 363.49C1710.06 363.49 1732.93 369.287 1752.05 380.88C1771.16 392.473 1785.42 407.67 1794.82 426.47L1733.25 445.27C1727.92 436.183 1720.87 429.29 1712.1 424.59C1703.32 419.577 1693.61 417.07 1682.96 417.07C1671.05 417.07 1660.08 420.203 1650.06 426.47C1640.34 432.423 1632.67 441.04 1627.03 452.32C1621.39 463.287 1618.57 476.133 1618.57 490.86C1618.57 505.273 1621.39 518.12 1627.03 529.4C1632.98 540.367 1640.81 549.14 1650.53 555.72C1660.24 561.987 1671.05 565.12 1682.96 565.12C1690.48 565.12 1697.53 563.867 1704.11 561.36C1711 558.853 1717.11 555.407 1722.44 551.02C1727.76 546.633 1731.68 541.62 1734.19 535.98L1795.76 554.78C1790.12 567 1781.81 577.967 1770.85 587.68C1760.19 597.393 1747.5 605.07 1732.78 610.71C1718.36 616.037 1702.07 618.7 1683.9 618.7ZM1979.82 616.35C1955.38 616.35 1933.13 611.65 1913.08 602.25C1893.34 592.85 1876.26 580.16 1861.85 564.18C1847.75 547.887 1836.78 529.713 1828.95 509.66C1821.11 489.293 1817.2 468.457 1817.2 447.15C1817.2 424.903 1821.27 403.753 1829.42 383.7C1837.88 363.333 1849.31 345.317 1863.73 329.65C1878.45 313.67 1895.69 301.137 1915.43 292.05C1935.48 282.65 1957.41 277.95 1981.23 277.95C2005.35 277.95 2027.29 282.807 2047.03 292.52C2067.08 302.233 2084.16 315.237 2098.26 331.53C2112.36 347.823 2123.32 365.997 2131.16 386.05C2138.99 406.103 2142.91 426.783 2142.91 448.09C2142.91 470.023 2138.83 491.173 2130.69 511.54C2122.54 531.593 2111.1 549.61 2096.38 565.59C2081.96 581.257 2064.73 593.633 2044.68 602.72C2024.94 611.807 2003.32 616.35 1979.82 616.35ZM1883 447.15C1883 461.563 1885.19 475.507 1889.58 488.98C1893.96 502.453 1900.23 514.517 1908.38 525.17C1916.84 535.51 1927.02 543.813 1938.93 550.08C1951.15 556.033 1964.93 559.01 1980.29 559.01C1995.95 559.01 2009.9 555.877 2022.12 549.61C2034.34 543.03 2044.52 534.413 2052.67 523.76C2060.81 512.793 2066.92 500.73 2071 487.57C2075.38 474.097 2077.58 460.623 2077.58 447.15C2077.58 432.737 2075.23 418.95 2070.53 405.79C2066.14 392.317 2059.72 380.41 2051.26 370.07C2043.11 359.417 2032.93 351.113 2020.71 345.16C2008.8 338.893 1995.33 335.76 1980.29 335.76C1964.31 335.76 1950.21 339.05 1937.99 345.63C1926.08 351.897 1916.05 360.357 1907.91 371.01C1899.76 381.663 1893.49 393.57 1889.11 406.73C1885.03 419.89 1883 433.363 1883 447.15ZM2390.09 367.72C2387.9 365.527 2383.83 362.55 2377.87 358.79C2372.23 355.03 2365.18 351.427 2356.72 347.98C2348.58 344.533 2339.65 341.557 2329.93 339.05C2320.22 336.23 2310.35 334.82 2300.32 334.82C2282.78 334.82 2269.46 338.11 2260.37 344.69C2251.6 351.27 2247.21 360.513 2247.21 372.42C2247.21 381.507 2250.03 388.713 2255.67 394.04C2261.31 399.367 2269.77 403.91 2281.05 407.67C2292.33 411.43 2306.43 415.503 2323.35 419.89C2345.29 425.217 2364.24 431.797 2380.22 439.63C2396.52 447.15 2408.89 457.177 2417.35 469.71C2426.13 481.93 2430.51 498.223 2430.51 518.59C2430.51 536.45 2427.22 551.803 2420.64 564.65C2414.06 577.183 2404.98 587.367 2393.38 595.2C2381.79 603.033 2368.63 608.83 2353.9 612.59C2339.18 616.037 2323.51 617.76 2306.9 617.76C2290.3 617.76 2273.69 616.037 2257.08 612.59C2240.48 609.143 2224.5 604.287 2209.14 598.02C2193.79 591.44 2179.69 583.607 2166.84 574.52L2195.51 518.59C2198.33 521.41 2203.35 525.17 2210.55 529.87C2217.76 534.257 2226.53 538.8 2236.87 543.5C2247.21 547.887 2258.49 551.647 2270.71 554.78C2282.93 557.913 2295.31 559.48 2307.84 559.48C2325.39 559.48 2338.71 556.503 2347.79 550.55C2356.88 544.597 2361.42 536.137 2361.42 525.17C2361.42 515.143 2357.82 507.31 2350.61 501.67C2343.41 496.03 2333.38 491.173 2320.53 487.1C2307.69 482.713 2292.49 478.013 2274.94 473C2253.95 467.047 2236.4 460.467 2222.3 453.26C2208.2 445.74 2197.71 436.34 2190.81 425.06C2183.92 413.78 2180.47 399.68 2180.47 382.76C2180.47 359.887 2185.8 340.773 2196.45 325.42C2207.42 309.753 2222.15 298.003 2240.63 290.17C2259.12 282.023 2279.64 277.95 2302.2 277.95C2317.87 277.95 2332.6 279.673 2346.38 283.12C2360.48 286.567 2373.64 291.11 2385.86 296.75C2398.08 302.39 2409.05 308.5 2418.76 315.08L2390.09 367.72Z" fill="#5D6EE0"/>
</svg>
