<svg width="1629" height="826" viewBox="0 0 1629 826" fill="none" xmlns="http://www.w3.org/2000/svg">
<path d="M694.646 295.291C690.329 298.622 614.104 341.324 614.104 436.275C614.104 546.102 711.097 584.956 714 585.918C713.553 588.286 698.591 639.13 662.861 690.935C631.002 736.523 597.728 782.038 547.11 782.038C496.492 782.038 483.465 752.805 425.032 752.805C368.086 752.805 347.839 783 301.539 783C255.238 783 222.932 740.816 185.788 689.011C142.763 628.177 108 533.669 108 443.972C108 300.102 202.09 223.8 294.691 223.8C343.894 223.8 384.909 255.919 415.801 255.919C445.204 255.919 491.058 221.876 547.035 221.876C568.25 221.876 644.475 223.8 694.646 295.291ZM520.461 160.968C543.611 133.659 559.988 95.7673 559.988 57.8755C559.988 52.621 559.541 47.2924 558.573 43C520.908 44.4061 476.096 67.9405 449.075 99.0976C427.86 123.076 408.06 160.968 408.06 199.378C408.06 205.15 409.027 210.923 409.474 212.773C411.856 213.217 415.727 213.735 419.598 213.735C453.392 213.735 495.897 191.237 520.461 160.968Z" fill="#5D6EE0"/>
<path d="M788.672 648V401.72H851.652V648H788.672ZM788.672 367.41V304.9H851.652V367.41H788.672ZM1056.07 650.35C1031.63 650.35 1009.38 645.65 989.329 636.25C969.589 626.85 952.512 614.16 938.099 598.18C923.999 581.887 913.032 563.713 905.199 543.66C897.366 523.293 893.449 502.457 893.449 481.15C893.449 458.903 897.522 437.753 905.669 417.7C914.129 397.333 925.566 379.317 939.979 363.65C954.706 347.67 971.939 335.137 991.679 326.05C1011.73 316.65 1033.67 311.95 1057.48 311.95C1081.61 311.95 1103.54 316.807 1123.28 326.52C1143.33 336.233 1160.41 349.237 1174.51 365.53C1188.61 381.823 1199.58 399.997 1207.41 420.05C1215.24 440.103 1219.16 460.783 1219.16 482.09C1219.16 504.023 1215.09 525.173 1206.94 545.54C1198.79 565.593 1187.36 583.61 1172.63 599.59C1158.22 615.257 1140.98 627.633 1120.93 636.72C1101.19 645.807 1079.57 650.35 1056.07 650.35ZM959.249 481.15C959.249 495.563 961.442 509.507 965.829 522.98C970.216 536.453 976.482 548.517 984.629 559.17C993.089 569.51 1003.27 577.813 1015.18 584.08C1027.4 590.033 1041.19 593.01 1056.54 593.01C1072.21 593.01 1086.15 589.877 1098.37 583.61C1110.59 577.03 1120.77 568.413 1128.92 557.76C1137.07 546.793 1143.18 534.73 1147.25 521.57C1151.64 508.097 1153.83 494.623 1153.83 481.15C1153.83 466.737 1151.48 452.95 1146.78 439.79C1142.39 426.317 1135.97 414.41 1127.51 404.07C1119.36 393.417 1109.18 385.113 1096.96 379.16C1085.05 372.893 1071.58 369.76 1056.54 369.76C1040.56 369.76 1026.46 373.05 1014.24 379.63C1002.33 385.897 992.306 394.357 984.159 405.01C976.012 415.663 969.746 427.57 965.359 440.73C961.286 453.89 959.249 467.363 959.249 481.15ZM1466.35 401.72C1464.15 399.527 1460.08 396.55 1454.13 392.79C1448.49 389.03 1441.44 385.427 1432.98 381.98C1424.83 378.533 1415.9 375.557 1406.19 373.05C1396.47 370.23 1386.6 368.82 1376.58 368.82C1359.03 368.82 1345.71 372.11 1336.63 378.69C1327.85 385.27 1323.47 394.513 1323.47 406.42C1323.47 415.507 1326.29 422.713 1331.93 428.04C1337.57 433.367 1346.03 437.91 1357.31 441.67C1368.59 445.43 1382.69 449.503 1399.61 453.89C1421.54 459.217 1440.5 465.797 1456.48 473.63C1472.77 481.15 1485.15 491.177 1493.61 503.71C1502.38 515.93 1506.77 532.223 1506.77 552.59C1506.77 570.45 1503.48 585.803 1496.9 598.65C1490.32 611.183 1481.23 621.367 1469.64 629.2C1458.04 637.033 1444.88 642.83 1430.16 646.59C1415.43 650.037 1399.76 651.76 1383.16 651.76C1366.55 651.76 1349.94 650.037 1333.34 646.59C1316.73 643.143 1300.75 638.287 1285.4 632.02C1270.04 625.44 1255.94 617.607 1243.1 608.52L1271.77 552.59C1274.59 555.41 1279.6 559.17 1286.81 563.87C1294.01 568.257 1302.79 572.8 1313.13 577.5C1323.47 581.887 1334.75 585.647 1346.97 588.78C1359.19 591.913 1371.56 593.48 1384.1 593.48C1401.64 593.48 1414.96 590.503 1424.05 584.55C1433.13 578.597 1437.68 570.137 1437.68 559.17C1437.68 549.143 1434.07 541.31 1426.87 535.67C1419.66 530.03 1409.63 525.173 1396.79 521.1C1383.94 516.713 1368.74 512.013 1351.2 507C1330.2 501.047 1312.66 494.467 1298.56 487.26C1284.46 479.74 1273.96 470.34 1267.07 459.06C1260.17 447.78 1256.73 433.68 1256.73 416.76C1256.73 393.887 1262.05 374.773 1272.71 359.42C1283.67 343.753 1298.4 332.003 1316.89 324.17C1335.37 316.023 1355.9 311.95 1378.46 311.95C1394.12 311.95 1408.85 313.673 1422.64 317.12C1436.74 320.567 1449.9 325.11 1462.12 330.75C1474.34 336.39 1485.3 342.5 1495.02 349.08L1466.35 401.72Z" fill="#5D6EE0"/>
</svg>
